<svg width="100%" height="100%" viewBox="0 0 297 85" version="1.1" xmlns="http://www.w3.org/2000/svg" xmlns:xlink="http://www.w3.org/1999/xlink" xml:space="preserve" xmlns:serif="http://www.serif.com/" style="fill-rule:evenodd;clip-rule:evenodd;stroke-linejoin:round;stroke-miterlimit:2;"><g id="Layer-1" serif:id="Layer 1"><path d="M154.153,29.462l-21.781,-0l0,12.724l-36.247,-0l0,-13.343l8.887,-9.134l48.955,-0l0,-17.602l-55.798,-0l-19.648,20.192l0,37.49l58.029,-0l17.603,-17.603l0,-12.724Z" style="fill:##171D1A;fill-rule:nonzero;"/><path d="M71.779,22.166l-37.429,0l0,17.766l19.826,0l0,12.767l-11.882,11.842l-1.772,1.773l-40.522,0l0,17.602l47.853,0l23.926,-23.926l0,-37.824Z" style="fill:##171D1A;fill-rule:nonzero;"/><g transform="matrix(1,0,0,1,-537.549,-338.136)"><text x="706.002px" y="360.538px" style="font-family:'LucidaGrande', 'Lucida Grande', sans-serif;font-weight:500;font-size:31px;fill:##171D1A;">J</text><text x="724.664px" y="360.538px" style="font-family:'LucidaGrande', 'Lucida Grande', sans-serif;font-weight:500;font-size:31px;fill:##171D1A;">U<tspan x="747.46px 765.912px 776.16px 797.08px 815.199px " y="360.538px 360.538px 360.538px 360.538px 360.538px ">PITER</tspan></text><text x="706.002px" y="391.197px" style="font-family:'LucidaGrande', 'Lucida Grande', sans-serif;font-weight:500;font-size:31px;fill:##171D1A;">A<tspan x="726.714px 748.941px " y="391.197px 391.197px ">ND</tspan></text><text x="777.271px" y="391.197px" style="font-family:'LucidaGrande', 'Lucida Grande', sans-serif;font-weight:500;font-size:31px;fill:##171D1A;">T<tspan x="796.197px 818.303px " y="391.197px 391.197px ">HE</tspan></text><text x="706.002px" y="421.856px" style="font-family:'LucidaGrande', 'Lucida Grande', sans-serif;font-weight:500;font-size:31px;fill:##171D1A;">G<tspan x="729.544px 739.615px 760.358px 782.886px 800.647px 818.408px " y="421.856px 421.856px 421.856px 421.856px 421.856px 421.856px ">IRAFFE</tspan></text></g></g></svg>